<svg width="13" height="13" viewBox="0 0 13 13" fill="none" xmlns="http://www.w3.org/2000/svg">
<path d="M7.69099 6.49912L12.7529 1.43692C13.0824 1.10765 13.0824 0.575255 12.7529 0.24598C12.4237 -0.0832953 11.8913 -0.0832953 11.562 0.24598L6.49992 5.30818L1.43798 0.24598C1.10856 -0.0832953 0.576335 -0.0832953 0.247067 0.24598C-0.0823556 0.575255 -0.0823556 1.10765 0.247067 1.43692L5.30901 6.49912L0.247067 11.5613C-0.0823556 11.8906 -0.0823556 12.423 0.247067 12.7523C0.411161 12.9165 0.62692 12.999 0.842526 12.999C1.05813 12.999 1.27374 12.9165 1.43798 12.7523L6.49992 7.69006L11.562 12.7523C11.7263 12.9165 11.9419 12.999 12.1575 12.999C12.3731 12.999 12.5887 12.9165 12.7529 12.7523C13.0824 12.423 13.0824 11.8906 12.7529 11.5613L7.69099 6.49912Z" fill="#7E839A"/>
</svg>
