<svg width="3002" height="2003" viewBox="0 0 3002 2003" fill="none" xmlns="http://www.w3.org/2000/svg"
    xmlns:xlink="http://www.w3.org/1999/xlink">
    <path
        d="M2257.95 1750.19L1186 1883.5H1184.33C1181.45 1883.5 1178.58 1883.24 1175.74 1882.73L1171.38 1881.93C1169.8 1881.65 1168.27 1881.14 1166.83 1880.42C1164.32 1879.16 1162.15 1877.29 1160.54 1874.99L1087.37 1770.67C1086.13 1768.9 1085.13 1766.97 1084.4 1764.93C1083.48 1762.33 1083 1759.59 1083 1756.82V1756V1752.94C1083 1752.32 1083.12 1751.7 1083.35 1751.13C1083.77 1750.08 1084.54 1749.2 1085.54 1748.66L1087.54 1747.57C1088.84 1746.86 1090.25 1746.42 1091.71 1746.26L2100 1637.5H2113H2113.17C2116.03 1637.5 2118.88 1637.99 2121.58 1638.96C2123.52 1639.65 2125.37 1640.58 2127.08 1641.72L2264.08 1733.38C2264.69 1733.79 2265.24 1734.29 2265.71 1734.85C2266.87 1736.24 2267.5 1737.99 2267.5 1739.79V1740.5V1742.31C2267.5 1743.74 2267.06 1745.12 2266.23 1746.28C2265.43 1747.4 2264.31 1748.25 2263.01 1748.72L2260.97 1749.47C2259.99 1749.82 2258.98 1750.06 2257.95 1750.19Z"
        stroke="white" stroke-width="2" />
    <path
        d="M833.654 1525.82L786 468.5V424.82C786 418.951 786.517 413.094 787.544 407.316L790 393.5L790.687 391.045C792.557 384.367 795.117 377.901 798.325 371.752L799.5 369.5L803.013 363.98C805.323 360.349 808.19 357.104 811.507 354.363C815.791 350.825 820.748 348.192 826.079 346.624L827.729 346.138C832.548 344.721 837.555 344.046 842.577 344.136L2078.43 366.364C2083.47 366.454 2088.49 366.926 2093.46 367.774L2106.5 370L2114.6 372.181C2117.85 373.056 2120.97 374.365 2123.87 376.073L2125.15 376.822C2127.04 377.936 2128.79 379.286 2130.34 380.84C2132.43 382.931 2134.15 385.364 2135.42 388.034L2138.5 394.5L2139.66 397.982C2142.87 407.605 2144.59 417.659 2144.78 427.801L2162.5 1410.5V1415.56C2162.5 1420.16 2161.82 1424.74 2160.48 1429.14L2160.09 1430.41C2159.37 1432.8 2158.38 1435.1 2157.16 1437.27L2156.59 1438.28C2155.21 1440.74 2153.44 1442.98 2151.36 1444.89C2149.14 1446.95 2146.58 1448.62 2143.8 1449.83L2142.04 1450.59C2138.37 1452.19 2134.47 1453.2 2130.49 1453.59L939 1570.5L908.5 1574H890.966C885.67 1574 880.388 1573.45 875.207 1572.35C869.422 1571.12 863.8 1569.22 858.456 1566.69L857 1566C851.717 1562.7 847.124 1558.4 843.476 1553.35L842.5 1552L839.741 1547.1C838.582 1545.03 837.577 1542.89 836.736 1540.68C834.923 1535.92 833.883 1530.91 833.654 1525.82Z"
        stroke="white" stroke-width="2" />
    <path
        d="M2291.3 1653.69L2290.17 1648.32C2290.06 1647.77 2290 1647.22 2290 1646.66C2290 1643.27 2292.14 1640.24 2295.34 1639.1L2342 1622.5L2345.8 1621.04C2347.58 1620.35 2349.21 1619.29 2350.55 1617.95C2351.18 1617.32 2351.87 1616.75 2352.61 1616.26C2354.82 1614.79 2357.42 1614 2360.08 1614H2361.16C2362.71 1614 2364.25 1614.23 2365.74 1614.67C2367.56 1615.22 2369.47 1615.44 2371.38 1615.31L2391 1614L2413 1615.5L2438.5 1620L2454.14 1625.02C2461.36 1627.33 2468.29 1630.46 2474.8 1634.34L2484.79 1640.3C2488.92 1642.76 2492.78 1645.65 2496.3 1648.92L2499.32 1651.73C2503.08 1655.22 2506.21 1659.33 2508.57 1663.88L2509.04 1664.8C2511 1668.57 2512.32 1672.65 2512.94 1676.85C2513.64 1681.58 2513.45 1686.39 2512.39 1691.04L2511.85 1693.39C2510.64 1698.71 2508.12 1703.65 2504.52 1707.76C2501.22 1711.54 2497.09 1714.51 2492.46 1716.45L2489.74 1717.59C2485.93 1719.19 2481.92 1720.26 2477.83 1720.79L2456.5 1723.5L2454.09 1723.9C2443.76 1725.62 2433.23 1725.71 2422.87 1724.16L2407.44 1721.86C2399.18 1720.62 2391.11 1718.36 2383.41 1715.12L2366.5 1708L2311.52 1679.37C2307.86 1677.47 2304.52 1675.02 2301.6 1672.1L2300.89 1671.39C2297.66 1668.16 2295.09 1664.33 2293.31 1660.12C2292.44 1658.04 2291.77 1655.89 2291.3 1653.69Z"
        stroke="white" stroke-width="2" />
    <path
        d="M3 1377L461.5 1325L473.5 1327L478 1328.5L475.5 1344V1355.5L478 1370L486 1387.5L493 1393.5L498 1396.5L507 1498.5L510.5 1573V1585L167 1727.5L0.5 1755M521 1622V1639.5L520 1659.5L513 1666L463 1676L354 1697L333 1700.5L521 1622ZM489 1336L493 1341L495 1344L496.5 1350V1363L498 1384.5L490.5 1371.5L487.5 1360.5V1350V1339L489 1336Z"
        stroke="white" stroke-width="2" />
    <path
        d="M1966.39 1583.71L1966.49 1583.52C1967.47 1581.57 1969.09 1580.02 1971.09 1579.13L2286.58 1439.6C2295.65 1435.59 2301.5 1426.6 2301.5 1416.68V1407.52C2301.5 1405.61 2302.38 1403.81 2303.88 1402.63C2306.47 1400.6 2307.02 1396.88 2305.13 1394.18L2303.31 1391.58C2302.13 1389.91 2301.53 1387.89 2301.58 1385.85L2307 1180V1171.68C2307 1168.24 2307.34 1164.8 2308.02 1161.42L2308.97 1156.63C2309.32 1154.88 2309.92 1153.2 2310.75 1151.63L2313.53 1146.35C2314.15 1145.17 2315.23 1144.3 2316.52 1143.95C2318.58 1143.39 2320.03 1141.53 2320.07 1139.39L2324.95 873.308C2325.11 864.957 2314.16 861.718 2309.74 868.809C2309.25 869.597 2308.9 870.463 2308.7 871.37L2271.47 1038.62C2270.88 1041.29 2271.88 1044.07 2274.04 1045.75C2274.68 1046.25 2275.39 1046.63 2276.15 1046.88L2279.45 1047.98C2283.23 1049.24 2286.14 1052.3 2287.21 1056.14C2287.73 1058.02 2287.78 1059.99 2287.37 1061.9L2285.5 1070.5L2260.43 1198.28C2259.84 1201.27 2257.94 1203.84 2255.26 1205.28C2253.78 1206.08 2252.12 1206.5 2250.43 1206.5H2247L2223.5 1204.5L2217.72 1203.59C2215.26 1203.2 2212.9 1202.34 2210.77 1201.06L2208.92 1199.95C2207.33 1199 2206.01 1197.66 2205.08 1196.06C2203.74 1193.76 2203.27 1191.06 2203.77 1188.45L2225 1077L2228.52 1062.94C2229.17 1060.32 2230.11 1057.78 2231.32 1055.37L2232.77 1052.46C2233.58 1050.83 2234.66 1049.34 2235.95 1048.05C2236.98 1047.02 2238.14 1046.13 2239.4 1045.39L2240.23 1044.91C2242.37 1043.66 2244.8 1043 2247.28 1043C2254.06 1043 2259.87 1038.14 2261.05 1031.46L2267.7 994.133C2268.78 988.049 2265.94 981.939 2260.59 978.844L2256.2 976.299C2252.86 974.367 2251.3 970.39 2252.42 966.702L2261.08 938.304C2261.55 936.772 2259.62 935.666 2258.53 936.843C2257.8 937.632 2256.5 937.427 2256.05 936.452L2254.63 933.355C2254.22 932.484 2254.17 931.493 2254.47 930.583L2282.46 845.766C2285.8 835.654 2287.5 825.073 2287.5 814.424V791V764.5V750.439C2287.5 744.16 2288.09 737.896 2289.27 731.728L2291.5 720L2296 702.5L2302 684L2307 672L2329.55 609.518C2330.35 607.291 2329.22 604.831 2327 604L2302 594L2295.82 591.017C2290.29 588.345 2285.01 585.168 2280.06 581.527L2270.5 574.5L2263.72 569.224C2259.25 565.748 2255.08 561.898 2251.26 557.716L2246.5 552.5L2236 540.5L2232 536.002C2226.69 530.022 2222.11 523.426 2218.36 516.355L2215 510L2212.1 505.475C2208.71 500.17 2205.82 494.557 2203.48 488.709L2202 485L2197.5 474L2195.86 468.268C2194.29 462.766 2193.19 457.139 2192.58 451.45L2192 446V418L2193.5 395L2196.59 378.885C2197.53 373.968 2198.84 369.13 2200.5 364.41L2201.54 361.472C2203.18 356.83 2205.16 352.316 2207.46 347.965L2213 337.5L2221 325L2226 317.5C2229.33 312.511 2233.11 307.839 2237.29 303.544L2250 290.5L2259.59 282.035C2264.52 277.689 2269.86 273.839 2275.54 270.54L2287.03 263.871C2294.31 259.641 2302.1 256.348 2310.22 254.071L2326.5 249.5L2343.5 245.5L2365 243H2378L2398.5 245.5L2407.32 246.602C2414.75 247.531 2422.05 249.292 2429.09 251.851L2435 254L2446.26 257.753C2450.75 259.249 2455.12 261.062 2459.36 263.178L2469.14 268.072C2475.03 271.017 2480.62 274.536 2485.82 278.579L2496 286.5L2504.89 293.77C2509.95 297.913 2514.59 302.544 2518.75 307.595L2526.5 317L2534.99 328.317C2541.29 336.72 2546.23 346.063 2549.62 356.003L2551.5 361.5L2555.48 371.177C2557.49 376.052 2559.11 381.077 2560.32 386.206L2561.07 389.352C2562.35 394.775 2563.18 400.295 2563.55 405.855L2564.44 419.48C2564.81 425.15 2564.7 430.841 2564.11 436.492L2562.51 451.663C2561.51 461.172 2559.15 470.488 2555.5 479.327L2547.96 497.613C2545.66 503.193 2542.86 508.553 2539.59 513.628L2525.5 535.5L2508.99 554.824C2504.34 560.259 2499.13 565.18 2493.43 569.503L2480.79 579.101C2476.94 582.03 2472.87 584.674 2468.63 587.014L2458.65 592.523C2450.26 597.15 2441.25 600.549 2431.9 602.614L2407.5 608L2389 609.5C2385.13 609.5 2382 612.634 2382 616.5V618.743C2382 622.522 2384.3 625.92 2387.81 627.324L2388.25 627.5C2392.02 629.01 2394.5 632.666 2394.5 636.731V637.67C2394.5 643.928 2389.43 649 2383.17 649H2374.5C2370.63 649 2367.5 652.134 2367.5 656C2367.5 659.866 2370.63 663 2374.5 663H2375.4C2377.69 663 2379.86 663.991 2381.36 665.716L2384.49 669.316C2387.4 672.659 2389 676.94 2389 681.37V751.812C2389 755.134 2387.68 758.32 2385.33 760.669L2383.19 762.807C2377.59 768.409 2379.84 777.948 2387.36 780.453C2388.45 780.815 2389.58 781 2390.73 781H2431.5C2433.15 781 2434.78 780.643 2436.28 779.955C2443.86 776.471 2452.5 782.011 2452.5 790.356V806.25C2452.5 812.053 2447.17 816.389 2441.49 815.206C2440.83 815.069 2440.19 814.861 2439.58 814.585L2419.5 805.5C2414.59 802.555 2408.98 801 2403.25 801H2396.36C2395.12 801 2393.89 801.117 2392.67 801.35L2376.92 804.366C2373.77 804.97 2371.85 808.189 2372.82 811.251L2372.98 811.774C2373.59 813.694 2375.37 815 2377.38 815C2379.93 815 2382 817.067 2382 819.617V820.021C2382 822.114 2380.7 823.987 2378.74 824.722L2377.98 825.006C2375.58 825.906 2373.99 828.191 2373.97 830.754L2371.53 1142.26C2371.51 1144.95 2372.69 1147.5 2374.74 1149.24C2376.8 1150.99 2377.98 1153.57 2377.94 1156.27L2375.61 1325.74C2375.54 1330.91 2375.06 1336.06 2374.2 1341.15L2371.5 1357L2370.09 1389.36C2370.03 1390.76 2369.6 1392.12 2368.83 1393.3L2366.49 1396.9C2364.96 1399.26 2366 1402.44 2368.64 1403.43C2370.36 1404.07 2371.5 1405.72 2371.5 1407.55V1420.13C2371.5 1428.11 2375.71 1435.49 2382.57 1439.55L2687.35 1619.84C2689.61 1621.18 2691 1623.61 2691 1626.25C2691 1627.72 2690.56 1629.15 2689.75 1630.38L2689.19 1631.21C2687.2 1634.2 2683.84 1636 2680.24 1636H2662.58C2651.91 1636 2641.62 1632.04 2633.7 1624.89C2631.57 1622.97 2629.26 1621.26 2626.79 1619.8L2406.52 1489.18C2403.57 1487.43 2401.18 1484.87 2399.65 1481.8C2397.63 1477.75 2394.14 1474.62 2389.89 1473.05L2366.68 1464.43C2364.17 1463.49 2361.5 1465.35 2361.5 1468.03C2361.5 1468.67 2361.66 1469.29 2361.96 1469.85L2362.9 1471.6C2364.25 1474.11 2364.64 1477.03 2363.99 1479.81L2363.86 1480.38C2362.48 1486.31 2357.2 1490.5 2351.11 1490.5C2350.04 1490.5 2348.97 1490.37 2347.94 1490.11L2344.86 1489.34C2337.76 1487.56 2332 1482.38 2329.5 1475.5L2319.77 1453.39C2319 1451.63 2317.26 1450.5 2315.34 1450.5C2312.67 1450.5 2310.5 1452.67 2310.5 1455.34V1455.66C2310.5 1457.69 2309.3 1459.53 2307.45 1460.36L2027.5 1585.5L2012.4 1590.63C2004.83 1593.2 1996.97 1594.82 1989 1595.46L1977.49 1596.38C1976.5 1596.46 1975.51 1596.41 1974.53 1596.22L1972.38 1595.81C1968.39 1595.05 1965.5 1591.56 1965.5 1587.5C1965.5 1586.18 1965.81 1584.89 1966.39 1583.71Z"
        stroke="white" stroke-width="2" />
    <path
        d="M507.52 183.116L518.5 175L536 165L555.023 157.324C561.325 154.781 567.869 152.887 574.554 151.672L574.993 151.592C586.247 149.546 597.77 149.446 609.059 151.296L610.855 151.591C618.591 152.859 626.152 155.033 633.381 158.067L655.587 167.388C660.518 169.458 665.24 171.993 669.689 174.959C681.058 182.539 690.41 192.774 696.935 204.78L699.5 209.5L715 241.5L724.065 268.695C727.007 277.522 728.703 286.716 729.104 296.012L731 340V369.586C731 379.802 729.435 389.957 726.358 399.699L713.111 441.65C711.042 448.199 708.305 454.518 704.942 460.506L669 524.5L663.163 533.401C653.875 547.566 641.123 559.123 626.117 566.978L595.017 583.257C588.668 586.58 584.115 592.544 582.584 599.545L581.669 603.729C581.557 604.238 581.553 604.763 581.655 605.274C581.874 606.368 582.566 607.309 583.546 607.843L585.334 608.819C586.726 609.578 587.779 610.836 588.28 612.341L588.723 613.669C589.456 615.867 588.461 618.27 586.388 619.306C585.487 619.756 584.756 620.487 584.306 621.388L583.064 623.872C582.38 625.239 582.244 626.815 582.684 628.278L584.138 633.127C584.568 634.559 583.495 636 582 636H566.5H563.015C560.755 636 558.578 636.851 556.917 638.384L555.292 639.884C553.879 641.189 553.29 643.161 553.757 645.027C554.216 646.864 555.628 648.313 557.453 648.82L560.112 649.559C562.298 650.166 564.192 651.538 565.451 653.426C566.143 654.465 567.035 655.357 568.074 656.049L569.602 657.068C571.518 658.345 573.653 659.256 575.9 659.755L587.238 662.275C589.391 662.753 591.425 663.661 593.219 664.942L594.613 665.938C596.491 667.279 598.74 668 601.048 668H601.285C603.687 668 606.016 668.831 607.876 670.353C609.581 671.748 610.8 673.649 611.356 675.781L612.937 681.841C613.268 683.113 614.417 684 615.732 684C615.91 684 616.088 684.017 616.264 684.049L619.086 684.579C621.935 685.113 624 687.601 624 690.5V698V709.5V720.5V722.243C624 724.688 623.248 727.075 621.845 729.078C620.957 730.347 619.83 731.431 618.526 732.269L617.847 732.706C615.021 734.523 611.662 735.525 608.395 734.744C605.579 734.071 602.687 732.9 601.5 731C600.324 729.118 599.321 726.568 598.592 724.346C597.863 722.121 595.841 720.5 593.5 720.5H593C589.962 720.5 587.5 722.962 587.5 726V735.861C587.5 737.58 586.979 739.258 586.005 740.675L584.942 742.221C583.237 744.701 583.544 748.044 585.672 750.172C586.842 751.342 587.5 752.93 587.5 754.586V756V759.919C587.5 763.523 586.223 767.009 583.895 769.76C582.643 771.24 581.685 772.945 581.072 774.783L579.015 780.955C577.349 785.952 576.5 791.186 576.5 796.454V805.5L572.5 842.5V879L576.5 1021.5L583.237 1220.72C583.406 1225.72 585.469 1230.47 589.008 1234.01C589.668 1234.67 590.38 1235.28 591.127 1235.85C593.019 1237.26 594.658 1239.02 595.942 1241L596.192 1241.39C598.359 1244.74 599.602 1248.6 599.795 1252.58L609.5 1453L610.475 1461.93C611.813 1474.21 610.868 1486.62 607.688 1498.55L604.5 1510.5L601 1523.5L597.844 1532.34C596.633 1535.73 594.607 1538.77 591.942 1541.19C590.983 1542.06 590.102 1543.02 589.311 1544.05L588.285 1545.38C586.445 1547.77 585.082 1550.49 584.268 1553.4L582.959 1558.07C582.339 1560.29 582.504 1562.65 583.426 1564.76C584.726 1567.73 587.391 1569.89 590.57 1570.53L612.5 1575L701 1598L750 1614.5L764.098 1620.22C766.95 1621.37 769.33 1623.45 770.857 1626.12L771.76 1627.71C773.472 1630.7 773.573 1634.35 772.03 1637.44C769.947 1641.61 765.329 1643.86 760.762 1642.94L647.311 1620.07C645.486 1619.7 643.827 1618.75 642.582 1617.37C640.938 1615.54 638.597 1614.5 636.14 1614.5H634H631C628.239 1614.5 626 1616.74 626 1619.5C626 1621.07 626.741 1622.56 628 1623.5L634 1628L654 1644.5L864.628 1835.58C867.041 1837.77 866.633 1841.67 863.818 1843.31C863.606 1843.44 863.404 1843.58 863.214 1843.73L861.637 1845.01C856.049 1849.53 849.077 1852 841.888 1852H839.177C829.415 1852 820.007 1848.34 812.807 1841.75L604.5 1651L594 1642.95C581.191 1633.13 566.194 1626.56 550.291 1623.79L544.861 1622.85C541.626 1622.28 538.349 1622 535.066 1622C528.081 1622 521.155 1623.28 514.632 1625.78L322 1699.5L180 1757L145.666 1766.48C133.661 1769.8 121.142 1770.84 108.754 1769.56L98.5 1768.5L75.1429 1764.21C74.3898 1764.07 73.6753 1763.77 73.048 1763.33C69.392 1760.77 70.3088 1755.12 74.5866 1753.85L82.5 1751.5L460.172 1606.63C479.884 1599.07 496.697 1585.47 508.203 1567.77L510 1565L515.538 1555.98C525.943 1539.05 531.063 1519.39 530.246 1499.53L521.5 1287V1270.45C521.5 1262.84 522.432 1255.27 524.276 1247.89C526.415 1239.34 527.326 1230.53 526.982 1221.72L513 863L511 840.331C510.629 836.124 505.368 834.449 502.633 837.667C501.902 838.528 501.5 839.62 501.5 840.749V867.5L497.5 897.5V929.5V945.319C497.5 954.635 495.246 963.812 490.93 972.068C487.671 978.303 485.579 985.082 484.756 992.07L483.385 1003.73C482.489 1011.34 478.988 1018.41 473.476 1023.74L470.729 1026.4C468.287 1028.76 465.261 1030.42 461.961 1031.23L454.411 1033.07C449.826 1034.19 445.095 1031.88 443.159 1027.57C442.402 1025.89 442.135 1024.03 442.39 1022.2L453.5 942.5L458.824 920.065C459.94 915.361 460.713 910.583 461.138 905.767L463.5 879V860.362C463.5 853.905 461.774 847.565 458.5 842C455.226 836.435 453.5 830.095 453.5 823.638V823.165C453.5 817.141 454.933 811.205 457.682 805.845L461.526 798.35C462.838 795.791 464.429 793.385 466.27 791.176L466.948 790.363C471.228 785.226 476.877 781.409 483.239 779.353C496.988 774.912 506.65 762.551 507.642 748.137L512.664 675.157C513.17 667.801 518.065 661.478 525.06 659.147L530.061 657.48C534.504 655.999 537.5 651.842 537.5 647.159C537.5 642.324 534.309 638.069 529.667 636.715L523.786 635C517.69 633.222 513.5 627.635 513.5 621.286C513.5 613.396 519.896 607 527.786 607H540.918C547.009 607 551.437 601.216 549.848 595.337C548.757 591.302 545.097 588.5 540.918 588.5H532.781C529.005 588.5 525.307 587.425 522.121 585.4L489.409 564.614C482.496 560.221 476.148 554.996 470.51 549.055L462.743 540.872C454.97 532.683 448.641 523.237 444.023 512.935L430.353 482.44C426.799 474.514 424.294 466.158 422.9 457.584L416.296 416.972C415.434 411.666 415 406.299 415 400.923V381.5L421.099 336.773C422.031 329.943 423.666 323.227 425.979 316.733L435.5 290L454.5 251L475.5 219L486.603 204.011C492.502 196.048 499.551 189.006 507.52 183.116Z"
        stroke="white" stroke-width="2" />
</svg>